<?xml version="1.0" encoding="UTF-8" standalone="no"?>
<svg
   width="272.48822"
   zoomAndPan="magnify"
   viewBox="0 0 204.36617 41.195296"
   height="54.927063"
   preserveAspectRatio="xMidYMid"
   version="1.0"
   id="svg425"
   sodipodi:docname="3.svg"
   xmlns:inkscape="http://www.inkscape.org/namespaces/inkscape"
   xmlns:sodipodi="http://sodipodi.sourceforge.net/DTD/sodipodi-0.dtd"
   xmlns="http://www.w3.org/2000/svg"
   xmlns:svg="http://www.w3.org/2000/svg">
  <sodipodi:namedview
     id="namedview427"
     pagecolor="#ffffff"
     bordercolor="#000000"
     borderopacity="0.25"
     inkscape:showpageshadow="2"
     inkscape:pageopacity="0.0"
     inkscape:pagecheckerboard="0"
     inkscape:deskcolor="#d1d1d1"
     showgrid="false" />
  <defs
     id="defs391" />
  <g
     fill="#ffffff"
     fill-opacity="1"
     id="g399"
     transform="translate(-85.678717,-162.81297)">
    <g
       transform="translate(83.206058,203.47314)"
       id="g397">
      <g
         id="g395">
        <path
           d="m 23.070312,0.535156 c 7.957032,0 14.847657,-4.480468 18.257813,-11.035156 l -7.625,-3.945312 c -1.9375,3.8125 -5.882813,6.355468 -10.632813,6.355468 -6.753906,0 -11.902343,-5.21875 -11.902343,-11.972656 0,-6.753906 5.148437,-11.96875 11.902343,-11.96875 4.75,0 8.695313,2.539062 10.632813,6.351562 l 7.625,-3.945312 c -3.410156,-6.554688 -10.300781,-11.035156 -18.257813,-11.035156 -11.367187,0 -20.597656,9.230468 -20.597656,20.597656 0,11.367188 9.230469,20.597656 20.597656,20.597656 z m 0,0"
           id="path393" />
      </g>
    </g>
  </g>
  <g
     fill="#ffffff"
     fill-opacity="1"
     id="g407"
     transform="translate(-85.678717,-162.81297)">
    <g
       transform="translate(145.95359,203.47314)"
       id="g405">
      <g
         id="g403">
        <path
           d="m 16.316406,0.535156 c 7.488282,0 13.84375,-4.414062 13.84375,-11.902344 0,-14.847656 -18.457031,-11.167968 -18.457031,-18.125 0,-2.273437 1.738281,-3.34375 3.878906,-3.34375 2.273438,0 4.546875,1.273438 6.550781,3.480469 l 5.886719,-5.617187 c -2.941406,-3.410156 -7.421875,-5.6875 -12.371093,-5.6875 -6.351563,0 -12.839844,3.8125 -12.839844,11.839844 0,13.640624 18.523437,10.363281 18.523437,17.386718 0,2.207032 -1.871093,3.675782 -4.949219,3.675782 -3.675781,0 -6.550781,-2.074219 -8.023437,-5.214844 l -7.289063,4.546875 c 2.609376,5.015625 8.226563,8.960937 15.246094,8.960937 z m 0,0"
           id="path401" />
      </g>
    </g>
  </g>
  <g
     fill="#ffffff"
     fill-opacity="1"
     id="g415"
     transform="translate(-85.678717,-162.81297)">
    <g
       transform="translate(197.33516,203.47314)"
       id="g413">
      <g
         id="g411">
        <path
           d="m 16.316406,0.535156 c 7.488282,0 13.84375,-4.414062 13.84375,-11.902344 0,-14.847656 -18.457031,-11.167968 -18.457031,-18.125 0,-2.273437 1.738281,-3.34375 3.878906,-3.34375 2.273438,0 4.546875,1.273438 6.550781,3.480469 l 5.886719,-5.617187 c -2.941406,-3.410156 -7.421875,-5.6875 -12.371093,-5.6875 -6.351563,0 -12.839844,3.8125 -12.839844,11.839844 0,13.640624 18.523437,10.363281 18.523437,17.386718 0,2.207032 -1.871093,3.675782 -4.949219,3.675782 -3.675781,0 -6.550781,-2.074219 -8.023437,-5.214844 l -7.289063,4.546875 c 2.609376,5.015625 8.226563,8.960937 15.246094,8.960937 z m 0,0"
           id="path409" />
      </g>
    </g>
  </g>
  <g
     fill="#ffffff"
     fill-opacity="1"
     id="g423"
     transform="translate(-85.678717,-162.81297)">
    <g
       transform="translate(248.71674,203.47314)"
       id="g421">
      <g
         id="g419">
        <path
           d="m 23.070312,0.535156 c 7.957032,0 14.847657,-4.480468 18.257813,-11.035156 l -7.625,-3.945312 c -1.9375,3.8125 -5.882813,6.355468 -10.632813,6.355468 -6.753906,0 -11.902343,-5.21875 -11.902343,-11.972656 0,-6.753906 5.148437,-11.96875 11.902343,-11.96875 4.75,0 8.695313,2.539062 10.632813,6.351562 l 7.625,-3.945312 c -3.410156,-6.554688 -10.300781,-11.035156 -18.257813,-11.035156 -11.367187,0 -20.597656,9.230468 -20.597656,20.597656 0,11.367188 9.230469,20.597656 20.597656,20.597656 z m 0,0"
           id="path417" />
      </g>
    </g>
  </g>
</svg>
