<?xml version="1.0" encoding="UTF-8" standalone="no"?>
<svg
   width="244.98961"
   zoomAndPan="magnify"
   viewBox="0 0 183.74221 123.65626"
   height="164.87502"
   preserveAspectRatio="xMidYMid"
   version="1.0"
   id="svg18"
   sodipodi:docname="7.svg"
   xmlns:inkscape="http://www.inkscape.org/namespaces/inkscape"
   xmlns:sodipodi="http://sodipodi.sourceforge.net/DTD/sodipodi-0.dtd"
   xmlns="http://www.w3.org/2000/svg"
   xmlns:svg="http://www.w3.org/2000/svg">
  <sodipodi:namedview
     id="namedview20"
     pagecolor="#ffffff"
     bordercolor="#000000"
     borderopacity="0.25"
     inkscape:showpageshadow="2"
     inkscape:pageopacity="0.0"
     inkscape:pagecheckerboard="0"
     inkscape:deskcolor="#d1d1d1"
     showgrid="false" />
  <defs
     id="defs8">
    <clipPath
       id="id1">
      <path
         d="M 95.535156,168 H 188 v 81.40625 H 95.535156 Z m 0,0"
         clip-rule="nonzero"
         id="path2" />
    </clipPath>
    <clipPath
       id="id2">
      <path
         d="m 187,125.65625 h 92.28516 V 207 H 187 Z m 0,0"
         clip-rule="nonzero"
         id="path5" />
    </clipPath>
  </defs>
  <g
     clip-path="url(#id1)"
     id="g12"
     transform="translate(-95.542968,-125.69141)">
    <path
       fill="#ffffff"
       d="m 157.41016,225.69922 v 11.20312 l -50.65235,-23.57031 v -9.08594 l 50.65235,-23.57031 v 11.20703 l -38.30469,16.80078 v 0.21094 z m 30.07812,-57.46875 h -84.70312 c -4.000004,0 -7.242191,3.24609 -7.242191,7.2539 v 66.61329 c 0,4.0039 3.242187,7.25 7.242191,7.25 h 61.1914 l 23.51172,-81.11719"
       fill-opacity="1"
       fill-rule="nonzero"
       id="path10" />
  </g>
  <g
     clip-path="url(#id2)"
     id="g16"
     transform="translate(-95.542968,-125.69141)">
    <path
       fill="#ffffff"
       d="m 268.08594,171.11328 -50.64844,23.25 v -11.20703 l 39.14844,-16.80078 v -0.21094 L 217.4375,149.33984 v -11.20312 l 50.64844,23.25 z m -57.07813,-45.42187 -23.51953,81.11718 h 84.57031 c 4,0 7.24219,-3.24609 7.24219,-7.2539 v -66.61328 c 0,-4.00391 -3.24219,-7.25 -7.24219,-7.25 h -61.05078"
       fill-opacity="1"
       fill-rule="nonzero"
       id="path14" />
  </g>
</svg>
